<?xml version="1.0" encoding="UTF-8" standalone="no"?>
<!-- Created with Inkscape (http://www.inkscape.org/) -->

<svg
   xmlns:osb="http://www.openswatchbook.org/uri/2009/osb"
   xmlns:dc="http://purl.org/dc/elements/1.1/"
   xmlns:cc="http://creativecommons.org/ns#"
   xmlns:rdf="http://www.w3.org/1999/02/22-rdf-syntax-ns#"
   xmlns:svg="http://www.w3.org/2000/svg"
   xmlns="http://www.w3.org/2000/svg"
   width="300px"
   height="360px"
   viewBox="0 0 121.26618 236.08159"
   version="1.1"
   id="svg4524">
  <g
     id="layer1"
     transform="translate(-36.267865,-17.729032)">
    <ellipse
       style="fill:none;stroke-width:0.26458332"
       id="path5069"
       cx="98.406425"
       cy="101.57967"
       rx="11.14035"
       ry="18.103069" />
    <g
       id="cabeca">
      <ellipse
         ry="27.595068"
         rx="25.087246"
         cy="85.565422"
         cx="113.49232"
         id="path5071"
         style="fill:none;fill-opacity:1;stroke:#000000;stroke-width:1.26499999;stroke-miterlimit:4;stroke-dasharray:none;stroke-opacity:1" />
    </g>
    <ellipse
       style="fill:none;stroke-width:0.26458332"
       id="path5079"
       cx="113.49232"
       cy="111.32748"
       rx="0.23209064"
       ry="3.7134502" />
    <g
       id="g5210">
      <path
         id="path5145"
         d="m 105.85819,27.061617 c 2.44288,31.35031 2.03573,31.35031 2.03573,31.35031"
         style="fill:none;stroke:#000000;stroke-width:1.56500006;stroke-linecap:butt;stroke-linejoin:miter;stroke-miterlimit:4;stroke-dasharray:none;stroke-opacity:1" />
    </g>
    <g
       id="g5207">
      <rect
         y="18.511532"
         x="37.050365"
         height="11.80726"
         width="119.70118"
         id="rect5147"
         style="fill:#2b0000;stroke:#000000;stroke-width:1.56500006;stroke-miterlimit:4;stroke-dasharray:none;stroke-opacity:1" />
    </g>
    <g
       id="g5204">
      <rect
         y="30.318792"
         x="37.050365"
         height="222.70934"
         width="10.992967"
         id="rect5149"
         style="fill:#2b0000;stroke:#000000;stroke-width:1.56500006;stroke-miterlimit:4;stroke-dasharray:none;stroke-opacity:1" />
    </g>
    <g
       id="corpo">
      <path
         id="path5155"
         d="m 114.40827,112.96961 c 0.15486,0.77429 0.39697,2.42253 0.8143,3.25717 0.0607,0.12139 0,-0.54286 0,-0.40714 0,0.40714 0,0.81429 0,1.22144 0,0.13571 0,-0.54286 0,-0.40715 0,0.54286 0,1.08572 0,1.62859 0,0.13571 -0.13572,-0.40715 0,-0.40715 0.13571,0 0,0.27143 0,0.40715 0,0.13571 0.13571,0.40714 0,0.40714 -0.13572,0 -0.13572,-0.40714 0,-0.40714 0.13571,0 0,0.27143 0,0.40714 0,0.13572 0.13571,0.40715 0,0.40715 -0.13572,0 -0.13572,-0.40715 0,-0.40715 0.13571,0 0,0.27143 0,0.40715 0,0.13572 0.13571,0.40715 0,0.40715 -0.13572,0 0,-0.54287 0,-0.40715 0,0.27143 0,0.54286 0,0.81429 0,0.13572 0.13571,0.40715 0,0.40715 -0.13572,0 0,-0.54286 0,-0.40715 0,0.27144 0,0.54287 0,0.8143 0,0.67858 0,1.35716 0,2.03573 0,0.27143 0,0.54286 0,0.8143 0,0.13571 -0.0429,0.27839 0,0.40714 0.096,0.2879 0.31118,0.5264 0.40714,0.8143 0.0734,0.22035 0,1.48988 0,1.62859 0,0.13571 0,-0.54287 0,-0.40715 0,2.03627 0,0.55293 0,2.03573 0,0.13572 -0.13571,-0.40715 0,-0.40715 0.1373,0 -0.0834,0.48086 0,0.8143 0.10409,0.41636 0.21522,0.83758 0.40715,1.22144 0.0607,0.12139 0,-0.54286 0,-0.40715 0,0.27143 0,0.54287 0,0.8143 0,0.13571 0,-0.54287 0,-0.40715 0,2.66907 0,-1.44763 0,1.22144 0,0.40715 0,0.81429 0,1.22144 0,0.27143 -0.0589,0.54933 0,0.81429 0.21433,0.9645 0.53039,1.90368 0.81429,2.85003 0.12333,0.41108 0.35392,0.79559 0.40715,1.22144 0.0158,0.12639 -0.0843,3.24272 0,3.66433 0.0595,0.29757 0.31118,0.52639 0.40715,0.81429 0.13337,0.40012 -0.12962,2.18364 0,2.44288 0.0607,0.12139 0.36423,-0.12875 0.40714,0 0.25751,0.77251 -0.19749,1.6529 0,2.44288 0.0466,0.1862 0.32132,0.23548 0.40715,0.40715 0.0606,0.12111 0,2.27161 0,2.44288 0,0.13572 0,-0.54286 0,-0.40715 0,0.27144 0,0.54287 0,0.8143 0,0.13571 0.13572,0.40714 0,0.40714 -0.13571,0 0,-0.54286 0,-0.40714 0,0.27143 0,0.54286 0,0.81429 0,0.13572 -0.13571,-0.40715 0,-0.40715 0.13572,0 0,0.27143 0,0.40715 0,0.40715 0,0.81429 0,1.22144 0,0.13572 -0.13571,0.40715 0,0.40715 0.19193,0 0.27143,-0.54287 0.40715,-0.40715 0.19193,0.19193 0,0.54286 0,0.8143 0,0.27143 0,0.54286 0,0.81429 0,1.7643 0,3.52861 0,5.29291 0,3.78798 0,8.39577 0,10.99296 0,0.13572 -0.13572,-0.40714 0,-0.40714 0.19193,0 0.32131,0.23547 0.40715,0.40714 0.0607,0.12139 0,0.27143 0,0.40715 0,0.13572 0.13571,0.40715 0,0.40715 -0.13572,0 0,-0.54287 0,-0.40715 0,1.08573 0,2.17145 0,3.25718 0,0.13571 -0.096,0.31118 0,0.40714 0.096,0.096 0.34645,-0.12139 0.40714,0 0.12139,0.24278 0,0.54286 0,0.8143 0,0.81429 0,1.62859 0,2.44288 0,0.13571 0,-0.54286 0,-0.40715 0,2.66908 0,-1.44763 0,1.22144 0,0.13572 0,-0.54286 0,-0.40715 0,0.27144 0,0.54287 0,0.8143 0,0.13571 0.13572,0.40714 0,0.40714 -0.13571,0 0,-0.54286 0,-0.40714 0,0.40714 -0.0798,0.8222 0,1.22144 0.10974,0.5487 0.31516,1.07663 0.40715,1.62859 0.0446,0.26773 -0.0658,0.55096 0,0.81429 0.0736,0.29441 0.35726,0.51495 0.40715,0.81429 0.0892,0.53548 0,1.08573 0,1.62859 0,0.13572 0,-0.54286 0,-0.40715 0,1.60619 0,2.63348 0,3.25718 0,0.13571 0,-0.54286 0,-0.40715 0,0.27143 0,0.54286 0,0.8143 0,0.13571 0,-0.54287 0,-0.40715 0,0.13292 0.0874,1.94829 0,2.03573 -0.13572,0.13572 -0.27143,-0.54286 -0.40715,-0.40714 -0.0874,0.0874 0,1.90281 0,2.03573"
         style="fill:none;stroke:#000000;stroke-width:1.06500006;stroke-linecap:butt;stroke-linejoin:miter;stroke-miterlimit:4;stroke-dasharray:none;stroke-opacity:1" />
    </g>
    <g
       id="bracodireito">
      <g
         id="g5167">
        <path
           style="fill:none;stroke:#000000;stroke-width:1.16499996;stroke-linecap:butt;stroke-linejoin:miter;stroke-miterlimit:4;stroke-dasharray:none;stroke-opacity:1"
           d="M 130.287,147.57709 116.44401,136.17698"
           id="path5157"
         />
      </g>
    </g>
    <g
       id="bracoesquerdo">
      <g
         id="g5170">
        <path
           style="fill:none;stroke:#000000;stroke-width:1.06500006;stroke-linecap:butt;stroke-linejoin:miter;stroke-miterlimit:4;stroke-dasharray:none;stroke-opacity:1"
           d="m 116.44401,136.17698 c -1.08573,-1.22144 -2.17145,-2.44288 -3.25718,-3.66432 -0.13572,-0.13572 -0.27143,-0.54286 -0.40715,-0.40715 -0.19193,0.19193 0.15057,0.58845 0,0.81429 -0.16833,0.25251 -0.51082,0.40715 -0.81429,0.40715 -0.19193,0 0.27143,-0.27143 0.40715,-0.40715 -0.13572,0.27144 -0.13572,0.67858 -0.40715,0.8143 -0.17167,0.0858 -0.27143,-0.54286 -0.40715,-0.40715 -0.27143,2.30717 0.13572,0.40715 0,0.40715 -0.19193,0 -0.27143,0.27143 -0.40714,0.40715 -0.13572,0.13571 -0.30069,0.24745 -0.40715,0.40714 -0.16833,0.2525 -0.31118,0.5264 -0.40715,0.8143 -0.0429,0.12875 0.13572,0.40714 0,0.40714 -0.30347,0 -0.54286,-0.54286 -0.81429,-0.40714 -1.29006,0.64502 1.6851,1.22144 -0.81429,1.22144 -0.13572,0 0.13571,-0.40715 0,-0.40715 -0.19193,0 -0.23548,0.32131 -0.40715,0.40715 -0.12139,0.0607 -0.2784,-0.0429 -0.40715,0 -0.28789,0.096 -0.5264,0.31118 -0.81429,0.40714 -0.12875,0.0429 -0.34646,-0.12138 -0.40715,0 -0.12139,0.24278 0.19193,0.62237 0,0.8143 -0.13571,0.13571 -0.23548,-0.32131 -0.40714,-0.40715 -0.12139,-0.0607 -0.34646,-0.12139 -0.40715,0 -0.12139,0.24278 0.19193,0.62236 0,0.81429 -0.13572,0.13572 -0.22507,-0.46784 -0.40715,-0.40714 -0.36416,0.12138 -0.54286,0.54286 -0.81429,0.81429 -0.13572,0.13572 0.40714,-0.21521 0.40714,-0.40715 0,-0.13571 -0.27143,0 -0.40714,0 -0.13572,0 -0.31118,-0.096 -0.40715,0 -0.21459,0.21459 -0.19256,0.59971 -0.40715,0.8143 -0.096,0.096 0.13572,-0.40715 0,-0.40715 -0.19193,0 -0.23548,0.32131 -0.40714,0.40715 -0.24278,0.12138 -0.58845,-0.15056 -0.8143,0 -0.31939,0.21293 -0.47096,0.64262 -0.81429,0.81429 -0.12139,0.0607 0.13572,-0.40714 0,-0.40714 -0.30347,0 -0.5264,0.31118 -0.81429,0.40714 -0.12876,0.0429 -0.28576,-0.0607 -0.40715,0 -0.17167,0.0858 -0.23548,0.32131 -0.40715,0.40715 -0.12138,0.0607 -0.275481,-0.0329 -0.407145,0 -0.416357,0.10409 -0.837579,0.21522 -1.221441,0.40715 -0.121389,0.0607 0.407148,-0.13572 0.407148,0 0,0.13571 -0.346453,-0.12139 -0.407148,0 -0.121389,0.24277 0.191931,0.62236 0,0.81429 -0.135716,0.13571 -0.23548,-0.32131 -0.407147,-0.40715 -0.121388,-0.0607 -0.311181,-0.096 -0.407146,0 -0.09597,0.096 0.128752,0.36423 0,0.40715 -0.407148,0 -0.814295,0 -1.221441,0 0.135716,0 0.407146,-0.13572 0.407146,0 0,0.13571 -0.311181,-0.096 -0.407146,0 -0.243324,0.24332 0.440076,0.81429 -0.407146,0.81429 -0.135718,0 0.121386,-0.34645 0,-0.40715 -0.242776,-0.12138 -0.542864,0 -0.814295,0 -0.27143,0 2.307167,-0.13571 0.407146,0.8143 -0.27143,0.13572 -0.599707,-0.19256 -0.814292,-0.40715 -0.09597,-0.096 0.542862,0 0.407146,0 -0.27143,0 -0.542861,0 -0.814295,0 -0.542861,0 1.492872,-0.13571 0.407149,0.40715 -0.430019,0.21501 -1.704604,-0.48316 -0.407149,0.81429 0.09048,0.0905 -0.04524,-1.94525 -0.814292,-0.40714 -0.135715,0.27143 0.192561,0.59971 0.407146,0.81429 0.09597,0.096 -0.135715,-0.40715 0,-0.40715 0.135716,0 0,0.27144 0,0.40715"
           id="path5161"/>
      </g>
    </g>
    <g id="pernaesquerda">
    <path
       style="fill:none;stroke:#000000;stroke-width:0.76499999;stroke-linecap:butt;stroke-linejoin:miter;stroke-miterlimit:4;stroke-dasharray:none;stroke-opacity:1"
       d="m 120.10833,180.96314 c -0.40715,0.67857 -0.66187,1.47616 -1.22144,2.03573 -0.19193,0.19193 -0.57152,-0.12139 -0.8143,0 -0.88051,0.44026 -0.75991,0.9363 -1.22144,1.62859 -0.10646,0.15969 -0.27143,0.27143 -0.40714,0.40715 -0.40715,0.40714 -0.77182,0.86174 -1.22144,1.22144 -0.90546,0.72436 -2.2504,0.64614 -3.25718,1.22144 -0.26348,0.15056 -0.12821,0.69475 -0.40715,0.81429 -0.75877,0.32519 -1.7045,0.038 -2.44288,0.40715 -0.43767,0.21883 -0.40714,0.95001 -0.81429,1.22144 -0.46559,0.31039 -1.12809,0.1569 -1.62859,0.40715 -0.12139,0.0607 0.11292,0.33186 0,0.40714 -0.477,0.318 -1.56755,0.34611 -2.03573,0.81429 -0.096,0.096 0.096,0.31119 0,0.40715 -1.58899,1.58899 -0.21866,-0.0942 -1.22144,0.40715 -0.17167,0.0858 -0.27143,0.27143 -0.40715,0.40715 -0.27143,0 -0.57152,-0.12139 -0.81429,0 -0.12139,0.0607 0.12138,0.34645 0,0.40714 -0.24278,0.12139 -0.57152,-0.12138 -0.8143,0 -0.12139,0.0607 0.0607,0.28576 0,0.40715 -0.0858,0.17167 -0.24745,0.30068 -0.40714,0.40715 -0.25251,0.16833 -0.5264,0.31118 -0.8143,0.40714 -0.12875,0.0429 -0.311178,-0.096 -0.407145,0 -0.214585,0.21459 -0.192562,0.59971 -0.407147,0.8143 -0.42917,0.42917 -1.199417,0.38512 -1.628587,0.81429 -0.09597,0.096 0.121389,0.34645 0,0.40715 -0.500496,0.25024 -1.097735,0.23019 -1.628587,0.40714 -0.128751,0.0429 0.535898,-0.0429 0.407146,0 -0.530854,0.17695 -1.097732,0.2302 -1.628587,0.40715 -0.128751,0.0429 0.407146,-0.13572 0.407146,0 0,0.27143 -0.571518,-0.12139 -0.814295,0 -1.694447,0.84723 0.243324,0.16383 0,0.40715 -0.214585,0.21458 -0.599707,0.19256 -0.814292,0.40715 -0.09597,0.096 0.542862,0 0.407146,0 -0.27143,0 -0.622363,-0.19194 -0.814292,0 -0.135718,0.13571 0.407146,0.21521 0.407146,0.40714 0,0.27143 -0.814295,-0.27143 -0.814295,0 0,0.19193 0.492983,0.23548 0.407149,0.40715 -0.135718,0.27143 -0.59971,0.19256 -0.814295,0.40715 -0.09596,0.096 0.09596,0.31118 0,0.40714 -0.842401,0.8424 0.03293,-1.2873 -0.814295,0.40715 -0.06069,0.12139 0.121388,0.34645 0,0.40715 -0.242773,0.12139 -0.622361,-0.19193 -0.814292,0 -0.135715,0.13571 0.542862,0.27143 0.407146,0.40714 -0.95001,0.95001 -0.814292,-0.74643 -0.814292,0.40715"
       id="path5189"/>
   </g>
    <g
       id="pernadireita">
      <path
         id="path5191"
         d="M 138.83709,189.51322 118.07259,172.8202"
         style="fill:none;stroke:#000000;stroke-width:0.86500001;stroke-linecap:butt;stroke-linejoin:miter;stroke-miterlimit:4;stroke-dasharray:none;stroke-opacity:1" />
    </g>
  </g>
</svg>
